<?xml version="1.0" encoding="UTF-8"?>
<svg id="BMO" xmlns="http://www.w3.org/2000/svg" viewBox="0 0 250 79">
  <defs>
    <style>
      .cls-1, .cls-2, .cls-3, .cls-4, .cls-5, .cls-6, .cls-7, .cls-8 {
        stroke-miterlimit: 10;
      }

      .cls-1, .cls-3 {
        stroke: #42210b;
      }

      .cls-1, .cls-4 {
        fill: #754c24;
      }

      .cls-9, .cls-3 {
        fill: #603813;
      }

      .cls-2 {
        fill: #8c6239;
      }

      .cls-2, .cls-4, .cls-8 {
        stroke: #603813;
      }

      .cls-10 {
        fill: #42160b;
      }

      .cls-5 {
        stroke: #f5e2c6;
        stroke-width: 2px;
      }

      .cls-5, .cls-11 {
        fill: #f5e8d0;
      }

      .cls-6 {
        fill: #006837;
        stroke: #009245;
        stroke-width: .25px;
      }

      .cls-7 {
        fill: #e6e6e6;
        stroke: #999;
      }

      .cls-12 {
        fill: #fff;
      }

      .cls-13 {
        fill: #f5e2c6;
      }

      .cls-8 {
        fill: #42210b;
      }
    </style>
  </defs>
  <g>
    <path class="cls-12" d="M61.39,75.01l-32.92-4.56-23.96-3.45-3.58-8.91,5.16-10.44,21.53-1.75,10.53-17.45,7.83-10.37,9.63-3.9,12.48-10.5,25.53-1.93,15.37-1.23,19.4,7.15h32.93l13.31,5.68,5.32,4,4.33,4,9.19,8.47,7.56,6.33,3.84,5.67,15.28,3.73,13.19,2.16.17-.14s1.65-1.28,3.89-1.28c2.47,0,4.72,1.48,6.71,4.41,1.45,2.14,2.71,3.49,3.62,4.48,1.19,1.28,1.56,1.72,1.33,2.32-.3.82-1.64,2.08-4.07,4.38l-.81.77c-7.85,7.45-22.16,7.79-22.3,7.79l-29.19,5.65h-31.7s-54.42,2.38-54.42,2.38l-45.16-3.46Z"/>
    <path class="cls-12" d="M108.92,1.04l19.22,7.08.17.06h32.92l13.16,5.61,5.23,3.93,4.33,4,9.22,8.5,7.49,6.27,3.69,5.46.22.32.37.09,15.09,3.68h.04s.04.02.04.02l12.93,2.12.44.07.34-.27s1.53-1.17,3.58-1.17c2.29,0,4.41,1.41,6.29,4.19,1.47,2.18,2.74,3.54,3.67,4.54,1.08,1.17,1.34,1.5,1.23,1.81-.26.71-1.65,2.02-3.95,4.19l-.81.77c-7.7,7.31-21.82,7.65-21.96,7.65h-.09s-.09.02-.09.02l-29.01,5.62h-31.74s-54.37,2.39-54.37,2.39l-45.1-3.46-32.92-4.56-23.68-3.41-3.39-8.43,4.94-9.98,20.99-1.7.51-.04.26-.44,10.37-17.19,7.74-10.26,9.43-3.82.15-.06.12-.1,12.3-10.34,25.37-1.92,15.26-1.23M109.06.02l-15.48,1.24-25.69,1.94-12.55,10.55-9.69,3.92-7.94,10.52-10.39,17.23-21.56,1.75L.38,58.07l3.77,9.38,24.25,3.49,32.95,4.57,45.19,3.47,54.43-2.4h31.79l29.11-5.64s14.55-.25,22.64-7.93c8.08-7.67,5.39-4.65,0-12.6-2.47-3.64-5.05-4.63-7.12-4.63-2.45,0-4.2,1.38-4.2,1.38l-12.93-2.12-15.09-3.68-3.77-5.57-7.6-6.36-9.19-8.47-4.36-4.03-5.36-4.03-13.46-5.74h-32.95L109.06.02h0Z"/>
  </g>
  <g>
    <ellipse class="cls-7" cx="127.83" cy="57.14" rx="118.26" ry="15.08"/>
    <ellipse class="cls-7" cx="127.83" cy="56.48" rx="88.66" ry="10.99"/>
  </g>
  <g>
    <path class="cls-5" d="M93.58,57.32c0,3.56,5.96,2.09,9.82,2.4,3.01,0,5.92,0,9.02,0,19.69,0,44.13,0,64.73,0,8.56,0,16.02,0,23.62,0,2.91-.2,5.58.54,8.02-.63,3.73-4.67-6.91-12.21-10.54-16.27-2.88-2.79-5.52-5.83-9.46-7.65-4.72-2.25-10.3-2.38-14.4-5.51-4.56-3.14-6.22-8.98-9.83-12.22-5.65-4.95-15.64-2.32-23.06-2.68-8.01.13-14.72-1.03-22.57-2.96-5.23-1.24-10.86-3.16-16.1-2.15-8.49.97-10.56,7.7-7.56,13.97,1.93,5.25,3.03,11.09,2.77,16.58-.21,5.3-3.57,12.37-4.44,17.03v.09Z"/>
    <path class="cls-5" d="M102.05,11.87c1.75.06,3.98-.24,4.67,1.28.54,1.29-.93,3.77-2.04,5.09-.71.86-1.71,1.36-2.95,1.51-2.31.12-6.46.65-7.22-.95-.29-.86.02-1.77.23-2.67.33-1.24.77-3,1.92-3.66,1.21-.77,3.05-.57,5.15-.6h.25Z"/>
    <g>
      <path class="cls-5" d="M111.8,14.78c-1.76.33-4.59-2.06-6.45-.64-1.35,1.12-1.04,3.62.63,4.46,1.79.83,4.22.66,6.26.58,3.5-.44,7.14,0,8.16-2.29.5-1.87-1.73-4.86-4.04-4.77-1.72.23-2.82,2.33-4.43,2.65l-.14.03Z"/>
      <g>
        <path class="cls-11" d="M102.12,10.31l1.92-1.8c1.3,1.07,3.84,3.07,5.2,3.51.71.36,1.73,1.54,2.27,2.36l-2.92,1.21-6.47-5.28Z"/>
        <path class="cls-13" d="M104.09,9.84c1.47,1.18,3.45,2.64,4.76,3.1.28.16.7.57,1.09,1.01l-1.17.49-5.12-4.18.45-.42M104.01,7.18l-3.4,3.19,7.81,6.38c.99-.41,2.54-1.05,3.58-1.49.39-.19.7-.22.81-.49-.25-.9-2.01-3.13-3.21-3.68-1.53-.44-5.61-3.92-5.61-3.92h0Z"/>
      </g>
      <path class="cls-5" d="M98.03,23.83l6.99,2.63,2.89-6.09c-.86-.33-3.23-.8-3.89-1.39-.55-.64-.63-1.62-.91-2.35-.26-.85-.63-.61-1.39.09-1.59,1.24-.48,1.72.75,2.49l-4.44,4.62Z"/>
      <path class="cls-5" d="M110.63,27.48l-7.14-4.64c1.77-1.11,4.98-3.34,6.9-4.48.73-.33,4,.39,4.82.42l-4.59,8.7Z"/>
      <path class="cls-5" d="M127.93,24.72l-10.36,2.76s-4.42-4.5-4.93-5.37c-.05-1.16.08-2.78.66-3.79.08-.09.18-.12.32-.11,2.12.59,6.96,2.35,9.05,3.03l5.27,3.48Z"/>
      <path class="cls-5" d="M123.99,12.92c1.75.06,3.98-.24,4.67,1.28.54,1.29-.93,3.77-2.04,5.09-.71.86-1.71,1.36-2.95,1.51-2.31.12-6.46.65-7.22-.95-.29-.86.02-1.77.23-2.67.33-1.24.77-3,1.92-3.66,1.21-.77,3.05-.57,5.15-.6h.25Z"/>
      <g>
        <path class="cls-11" d="M119.67,23.23l1.65-7.4c.29.04.59.07.9.11.72.09,1.5.18,2.16.3-.06.36-.15.82-.23,1.19-.3,1.45-.64,3.09-.39,4.31.11.46-.48,1.72-1.28,2.89l-2.8-1.41Z"/>
        <path class="cls-13" d="M122.1,16.94c.36.04.73.09,1.1.14-.01.06-.02.11-.03.16-.32,1.54-.68,3.28-.39,4.7-.06.28-.31.82-.66,1.4l-1.29-.65,1.28-5.75M120.55,14.71l-2.03,9.07,4.25,2.14s2.36-3.03,1.95-4.36c-.35-1.77.88-5.21.67-6.09-1.27-.38-3.53-.51-4.86-.76h0Z"/>
      </g>
    </g>
    <g>
      <path class="cls-5" d="M132.29,17.77c-1.76.33-4.59-2.06-6.45-.64-1.35,1.12-1.04,3.62.63,4.46,1.79.83,4.22.66,6.26.58,3.5-.44,7.14,0,8.16-2.29.5-1.87-1.73-4.86-4.04-4.77-1.72.23-2.82,2.33-4.43,2.65l-.14.03Z"/>
      <g>
        <path class="cls-11" d="M122.61,13.3l1.92-1.8c1.3,1.07,3.84,3.07,5.2,3.51.71.36,1.73,1.54,2.27,2.36l-2.92,1.21-6.47-5.28Z"/>
        <path class="cls-13" d="M124.58,12.83c1.47,1.18,3.45,2.64,4.76,3.1.28.16.7.57,1.09,1.01l-1.17.49-5.12-4.18.45-.42M124.5,10.16l-3.4,3.19,7.81,6.38c.99-.41,2.54-1.05,3.58-1.49.39-.19.7-.22.81-.49-.25-.9-2.01-3.13-3.21-3.68-1.53-.44-5.61-3.92-5.61-3.92h0Z"/>
      </g>
      <path class="cls-5" d="M118.52,26.82l6.99,2.63,2.89-6.09c-.86-.33-3.23-.8-3.89-1.39-.55-.64-.63-1.62-.91-2.35-.26-.85-.63-.61-1.39.09-1.59,1.24-.48,1.72.75,2.49l-4.44,4.62Z"/>
      <path class="cls-5" d="M131.12,30.46l-7.14-4.64c1.77-1.11,4.98-3.34,6.9-4.48.73-.33,4,.39,4.82.42l-4.59,8.7Z"/>
      <path class="cls-5" d="M148.42,27.71l-10.36,2.76s-4.42-4.5-4.93-5.37c-.05-1.16.08-2.78.66-3.79.08-.09.18-.12.32-.11,2.12.59,6.96,2.35,9.05,3.03l5.27,3.48Z"/>
      <path class="cls-5" d="M144.48,15.9c1.75.06,3.98-.24,4.67,1.28.54,1.29-.93,3.77-2.04,5.09-.71.86-1.71,1.36-2.95,1.51-2.31.12-6.46.65-7.22-.95-.29-.86.02-1.77.23-2.67.33-1.24.77-3,1.92-3.66,1.21-.77,3.05-.57,5.15-.6h.25Z"/>
      <g>
        <path class="cls-11" d="M140.16,26.22l1.65-7.4c.29.04.59.07.9.11.72.09,1.5.18,2.16.3-.06.36-.15.82-.23,1.19-.3,1.45-.64,3.09-.39,4.31.11.46-.48,1.72-1.28,2.89l-2.8-1.41Z"/>
        <path class="cls-13" d="M142.59,19.93c.36.04.73.09,1.1.14-.01.06-.02.11-.03.16-.32,1.54-.68,3.28-.39,4.7-.06.28-.31.82-.66,1.4l-1.29-.65,1.28-5.75M141.04,17.7l-2.03,9.07,4.25,2.14s2.36-3.03,1.95-4.36c-.35-1.77.88-5.21.67-6.09-1.27-.38-3.53-.51-4.86-.76h0Z"/>
      </g>
    </g>
    <path class="cls-5" d="M104.36,29.34c-.36-1.51,2.48-3.9.83-5.5-1.3-1.16-4.23-.94-5.23.48-.99,1.52-.83,3.59-.75,5.34.47,2.99-.09,6.09,2.59,6.99,2.19.45,5.72-1.42,5.64-3.39-.25-1.47-2.7-2.44-3.04-3.81l-.03-.12Z"/>
    <g>
      <path class="cls-11" d="M147.43,16.62l1.92-1.8c1.3,1.07,3.84,3.07,5.2,3.51.71.36,1.73,1.54,2.27,2.36l-2.92,1.21-6.47-5.28Z"/>
      <path class="cls-13" d="M149.4,16.14c1.47,1.18,3.45,2.64,4.76,3.1.28.16.7.57,1.09,1.01l-.04.02-1.13.47-5.12-4.18.45-.42M149.32,13.48l-3.4,3.19,7.81,6.38c.99-.41,2.54-1.05,3.58-1.49.39-.19.7-.22.81-.49-.25-.9-2.01-3.13-3.21-3.68-1.53-.44-5.61-3.92-5.61-3.92h0Z"/>
    </g>
    <g>
      <path class="cls-5" d="M120.12,35.91c1.76-.33,4.59,2.06,6.45.64,1.35-1.12,1.04-3.62-.63-4.46-1.79-.83-4.22-.66-6.26-.58-3.5.44-7.14,0-8.16,2.29-.5,1.87,1.73,4.86,4.04,4.77,1.72-.23,2.82-2.33,4.43-2.65l.14-.03Z"/>
      <g>
        <path class="cls-11" d="M127.88,42.19c-1.3-1.07-3.84-3.07-5.2-3.51-.71-.36-1.73-1.54-2.27-2.36l2.92-1.21,6.47,5.28-1.92,1.8Z"/>
        <path class="cls-13" d="M123.17,36.26l5.12,4.18-.45.42c-1.47-1.18-3.45-2.64-4.76-3.1-.28-.16-.7-.57-1.09-1.01l1.17-.49M123.5,33.95c-.99.41-2.54,1.05-3.58,1.49-.39.19-.7.22-.81.49.25.9,2.01,3.13,3.21,3.68,1.53.44,5.61,3.92,5.61,3.92l3.4-3.19-7.81-6.38h0Z"/>
      </g>
      <path class="cls-5" d="M133.89,26.86l-6.99-2.63-2.89,6.09c.86.33,3.23.8,3.89,1.39.55.64.63,1.62.91,2.35.26.85.63.61,1.39-.09,1.59-1.24.48-1.72-.75-2.49l4.44-4.62Z"/>
      <path class="cls-5" d="M121.3,23.22l7.14,4.64c-1.77,1.11-4.98,3.34-6.9,4.48-.73.33-4-.39-4.82-.42l4.59-8.7Z"/>
      <path class="cls-5" d="M104,25.98l10.36-2.76s4.42,4.5,4.93,5.37c.05,1.16-.08,2.78-.66,3.79-.08.09-.18.12-.32.11-2.12-.59-6.96-2.35-9.05-3.03l-5.27-3.48Z"/>
      <path class="cls-5" d="M107.93,37.78c-1.75-.06-3.98.24-4.67-1.28-.54-1.29.93-3.77,2.04-5.09.71-.86,1.71-1.36,2.95-1.51,2.31-.12,6.46-.65,7.22.95.29.86-.02,1.77-.23,2.67-.33,1.24-.77,3-1.92,3.66-1.21.77-3.05.57-5.15.6h-.25Z"/>
      <g>
        <path class="cls-11" d="M109.71,34.75c-.72-.09-1.51-.18-2.16-.3.06-.36.15-.82.23-1.19.3-1.45.64-3.09.39-4.31-.11-.46.48-1.72,1.28-2.89l2.8,1.41-1.65,7.4c-.29-.04-.59-.07-.9-.11Z"/>
        <path class="cls-13" d="M109.82,27.35l1.29.65-1.28,5.75c-.36-.04-.73-.09-1.1-.14.01-.06.02-.11.03-.16.32-1.54.68-3.28.39-4.7.06-.28.31-.82.66-1.4M109.15,24.78s-2.36,3.03-1.95,4.36c.35,1.77-.88,5.21-.67,6.09,1.27.38,3.53.51,4.86.76l2.03-9.07-4.25-2.14h0Z"/>
      </g>
    </g>
    <path class="cls-5" d="M165.25,43.14c-1.53.73-3.24,1.98-4.76,1-1.25-.86-1.52-3.62-1.4-5.25.08-1.05.62-1.92,1.58-2.61,1.89-1.13,5.09-3.45,6.73-2.43.78.6,1.07,1.52,1.45,2.38.49,1.2,1.19,2.9.62,3.97-.56,1.19-2.24,1.85-4.02,2.82l-.21.11Z"/>
    <g>
      <path class="cls-5" d="M155.16,45.03c1.3-1.07,5.18-.3,5.88-2.34.46-1.56-1.34-3.55-3.28-3.51-2.03.1-4,1.33-5.68,2.31-2.71,1.94-6.08,3.2-5.53,5.61.73,1.82,4.47,3.36,6.37,2.25,1.32-.97.97-3.25,2.14-4.24l.11-.09Z"/>
      <g>
        <path class="cls-11" d="M165.71,46.84c-1.43-.26-4.09-.71-5.67-.71-.33,0-.6.02-.83.06-.96-.02-2.6-.57-3.58-1.05l1.64-2.2,8.94,1.63-.5,2.27Z"/>
        <path class="cls-13" d="M157.69,44.03l7.31,1.33-.07.32c-1.51-.26-3.55-.56-4.9-.56-.35,0-.65.02-.92.06-.46-.02-1.22-.23-1.93-.48l.5-.68M156.83,41.84c-.59.8-1.51,2.04-2.13,2.87-.21.34-.46.5-.39.78.74.64,3.46,1.69,4.87,1.69.04,0,.09,0,.13,0,.19-.04.44-.06.74-.06,2.12,0,6.44.87,6.44.87l.93-4.24-10.58-1.93h0Z"/>
      </g>
      <path class="cls-5" d="M161.31,31.15l-7.57.9,1.29,6.48c.93-.1,3.24-.77,4.16-.56.86.3,1.53,1.1,2.22,1.59.75.61.91.24,1.13-.7.59-1.77-.65-1.68-2.17-1.78l.94-5.92Z"/>
      <path class="cls-5" d="M148.35,33.7l8.93.75c-.82,1.74-2.18,5.07-3.11,6.91-.42.61-3.64,1.46-4.36,1.8l-1.45-9.46Z"/>
      <path class="cls-5" d="M135.32,43.8l7.12-6.99s6.52,1.85,7.49,2.36c.76.96,1.65,2.4,1.77,3.52-.02.11-.08.18-.2.24-2.17.45-7.37,1.12-9.56,1.47l-6.62-.6Z"/>
      <path class="cls-5" d="M145.93,52.08c-1.53.73-3.24,1.98-4.76,1-1.25-.86-1.52-3.62-1.4-5.25.08-1.05.62-1.92,1.58-2.61,1.89-1.13,5.09-3.45,6.73-2.43.78.6,1.07,1.52,1.45,2.38.49,1.2,1.19,2.9.62,3.97-.56,1.19-2.24,1.85-4.02,2.82l-.21.11Z"/>
      <g>
        <path class="cls-11" d="M143.59,49.41c-.19-.35-.43-.86-.62-1.27-.63-1.36-1.35-2.89-2.28-3.8-.41-.34-.66-1.63-.71-2.89l3.29-.06,3.14,7.02c-.21.08-.44.16-.66.25-.71.27-1.49.56-2.15.75Z"/>
        <path class="cls-13" d="M142.62,42.41l2.43,5.45c-.32.12-.64.24-.95.34-.08-.17-.16-.33-.23-.48-.67-1.43-1.43-3.06-2.49-4.09l-.04-.04c-.11-.2-.21-.63-.28-1.15l1.56-.03M143.91,40.38l-4.94.09s-.14,3.63,1.02,4.59c1.39,1.34,2.45,4.83,3.17,5.48,1.32-.24,3.32-1.14,4.6-1.53l-3.85-8.62h0Z"/>
      </g>
    </g>
    <g>
      <path class="cls-5" d="M135.88,51.67c1.3-1.07,5.18-.3,5.88-2.34.46-1.56-1.34-3.55-3.28-3.51-2.03.1-4,1.33-5.68,2.31-2.71,1.94-6.08,3.2-5.53,5.61.73,1.82,4.47,3.36,6.37,2.25,1.32-.97.97-3.25,2.14-4.24l.11-.09Z"/>
      <g>
        <path class="cls-11" d="M146.43,53.48c-1.43-.26-4.09-.71-5.67-.71-.33,0-.6.02-.83.06-.96-.02-2.6-.57-3.58-1.05l1.64-2.2,8.94,1.63-.5,2.27Z"/>
        <path class="cls-13" d="M138.42,50.67l7.31,1.33-.07.32c-1.51-.26-3.55-.56-4.9-.56-.35,0-.65.02-.92.06-.46-.02-1.22-.23-1.93-.48l.5-.68M137.55,48.48c-.59.8-1.51,2.04-2.13,2.87-.21.34-.46.5-.39.78.74.64,3.46,1.69,4.87,1.69.04,0,.09,0,.13,0,.19-.04.44-.06.74-.06,2.12,0,6.44.87,6.44.87l.93-4.24-10.58-1.93h0Z"/>
      </g>
      <path class="cls-5" d="M142.04,37.79l-7.57.9,1.29,6.48c.93-.1,3.24-.77,4.16-.56.86.3,1.53,1.1,2.22,1.59.75.61.91.24,1.13-.7.59-1.77-.65-1.68-2.17-1.78l.94-5.92Z"/>
      <path class="cls-5" d="M129.07,40.34l8.93.75c-.82,1.74-2.18,5.07-3.11,6.91-.42.61-3.64,1.46-4.36,1.8l-1.45-9.46Z"/>
      <path class="cls-5" d="M116.05,50.44l7.12-6.99s6.52,1.85,7.49,2.36c.76.96,1.65,2.4,1.77,3.52-.02.11-.08.18-.2.24-2.17.45-7.37,1.12-9.56,1.47l-6.62-.6Z"/>
      <path class="cls-5" d="M126.66,58.72c-1.53.73-3.24,1.98-4.76,1-1.25-.86-1.52-3.62-1.4-5.25.08-1.05.62-1.92,1.58-2.61,1.89-1.13,5.09-3.45,6.73-2.43.78.6,1.07,1.52,1.45,2.38.49,1.2,1.19,2.9.62,3.97-.56,1.19-2.24,1.85-4.02,2.82l-.21.11Z"/>
      <g>
        <path class="cls-11" d="M124.31,56.05c-.19-.35-.43-.86-.62-1.27-.63-1.36-1.35-2.89-2.28-3.8-.41-.34-.66-1.63-.71-2.89l3.29-.06,3.14,7.02c-.22.08-.44.16-.67.25-.71.27-1.49.56-2.15.74Z"/>
        <path class="cls-13" d="M123.35,49.05l2.43,5.45c-.32.12-.64.24-.95.34-.08-.17-.16-.33-.23-.48-.67-1.44-1.43-3.06-2.49-4.09l-.04-.04c-.11-.2-.21-.63-.28-1.15l1.56-.03M124.63,47.02l-4.94.09s-.14,3.63,1.02,4.59c1.39,1.34,2.45,4.83,3.17,5.48,1.32-.24,3.32-1.14,4.6-1.53l-3.85-8.62h0Z"/>
      </g>
    </g>
    <path class="cls-5" d="M152.54,29.3c1.24,1.12.29,4.43,2.67,5.05,1.82.41,4.18-1.1,4.16-2.76-.09-1.74-1.5-3.43-2.64-4.88-2.24-2.33-3.67-5.23-6.5-4.79-2.14.6-3.99,3.77-2.72,5.41,1.12,1.14,3.8.86,4.93,1.88l.1.09Z"/>
    <g>
      <path class="cls-11" d="M127.41,43.76c-1.43-.26-4.09-.71-5.67-.71-.33,0-.6.02-.83.06-.96-.02-2.6-.57-3.58-1.05l1.64-2.2,8.94,1.63-.5,2.27Z"/>
      <path class="cls-13" d="M119.4,40.95l7.31,1.33-.07.32c-1.51-.26-3.55-.56-4.9-.56-.35,0-.65.02-.92.06-.46-.02-1.22-.23-1.93-.48l.5-.68M118.53,38.76c-.59.8-1.51,2.04-2.13,2.87-.21.34-.46.5-.39.78.74.64,3.46,1.69,4.87,1.69.04,0,.09,0,.13,0,.19-.04.44-.06.74-.06,2.12,0,6.44.87,6.44.87l.93-4.24-10.58-1.93h0Z"/>
    </g>
    <g>
      <path class="cls-5" d="M135.08,30.77c-1.3,1.07-5.18.3-5.88,2.34-.46,1.56,1.34,3.55,3.28,3.51,2.03-.1,4-1.33,5.68-2.31,2.71-1.94,6.08-3.2,5.53-5.61-.73-1.82-4.47-3.36-6.37-2.25-1.32.97-.97,3.25-2.14,4.24l-.11.09Z"/>
      <g>
        <path class="cls-11" d="M124.03,31.23l.5-2.27c1.43.26,4.09.71,5.67.71.33,0,.6-.02.83-.06.96.02,2.6.57,3.58,1.05l-1.64,2.2-8.94-1.63Z"/>
        <path class="cls-13" d="M125.3,30.11c1.51.26,3.55.56,4.9.56.35,0,.65-.02.92-.06.46.02,1.22.23,1.93.48l-.5.68-7.31-1.33.07-.32M123.76,27.79l-.93,4.24,10.58,1.93c.59-.8,1.51-2.04,2.13-2.87.21-.34.46-.5.39-.78-.74-.64-3.46-1.69-4.87-1.69-.04,0-.09,0-.13,0-.19.04-.44.06-.74.06-2.12,0-6.44-.87-6.44-.87h0Z"/>
      </g>
      <path class="cls-5" d="M128.93,44.65l7.57-.9-1.29-6.48c-.93.1-3.24.77-4.16.56-.86-.3-1.53-1.1-2.22-1.59-.75-.61-.91-.24-1.13.7-.59,1.77.65,1.68,2.17,1.78l-.94,5.92Z"/>
      <path class="cls-5" d="M141.89,42.1l-8.93-.75c.82-1.74,2.18-5.07,3.11-6.91.42-.61,3.64-1.46,4.36-1.8l1.45,9.46Z"/>
      <path class="cls-5" d="M154.92,32l-7.12,6.99s-6.52-1.85-7.49-2.36c-.76-.96-1.65-2.4-1.77-3.52.02-.11.08-.18.2-.24,2.17-.45,7.37-1.12,9.56-1.47l6.62.6Z"/>
      <path class="cls-5" d="M144.31,23.72c1.53-.73,3.24-1.98,4.76-1,1.25.86,1.52,3.62,1.4,5.25-.08,1.05-.62,1.92-1.58,2.61-1.89,1.13-5.09,3.45-6.73,2.43-.78-.6-1.07-1.52-1.45-2.38-.49-1.2-1.19-2.9-.62-3.97.56-1.19,2.24-1.85,4.02-2.82l.21-.11Z"/>
      <g>
        <path class="cls-11" d="M143.84,27.38c.21-.08.44-.16.66-.25.71-.27,1.49-.56,2.15-.75.19.35.43.86.62,1.27.63,1.36,1.35,2.89,2.28,3.8.41.34.66,1.63.71,2.89l-3.29.06-3.14-7.02Z"/>
        <path class="cls-13" d="M146.14,27.6c.08.17.16.33.23.48.67,1.44,1.43,3.06,2.49,4.09l.04.04c.11.2.21.63.28,1.15l-1.56.03-2.43-5.45c.32-.12.64-.24.95-.34M147.08,25.26c-1.32.24-3.32,1.14-4.6,1.53l3.85,8.62,4.94-.09s.14-3.63-1.02-4.59c-1.39-1.34-2.45-4.83-3.17-5.48h0Z"/>
      </g>
    </g>
    <path class="cls-5" d="M142.83,54.74c.79,1.33,2.19,2.84.99,4.1-1.05,1.03-4.3,1.16-6.2.99-1.23-.11-2.23-.6-2.99-1.45-1.25-1.66-3.84-4.48-2.58-5.84.73-.64,1.82-.85,2.84-1.15,1.43-.37,3.44-.9,4.68-.37,1.38.52,2.08,1.99,3.15,3.53l.12.18Z"/>
    <g>
      <path class="cls-5" d="M109.62,46.17c-.27-1.52,2.71-3.78,1.17-5.45-1.23-1.22-4.17-1.12-5.26.25-1.08,1.47-1.05,3.55-1.08,5.3.29,3.01-.47,6.08,2.15,7.1,2.16.55,5.8-1.16,5.84-3.13-.16-1.48-2.54-2.56-2.8-3.94l-.02-.12Z"/>
      <g>
        <path class="cls-11" d="M109.92,45.81l-1.12-2.36,6.68-5.23,1.97,1.75c-1.42,1.11-3.6,2.93-4.21,4.03-.49.6-2.2,1.54-3.26,1.9-.02-.03-.03-.06-.05-.1Z"/>
        <path class="cls-13" d="M115.44,39.53l.46.41c-1.4,1.14-2.85,2.47-3.47,3.48-.32.34-1.19.85-1.96,1.21l-.14-.29-.28-.59,5.39-4.22M115.51,36.92l-7.97,6.24c.42.87,1.07,2.23,1.51,3.15.2.34.21.61.52.73,1.07-.15,3.79-1.51,4.51-2.49.61-1.27,4.94-4.52,4.94-4.52l-3.51-3.1h0Z"/>
      </g>
      <path class="cls-5" d="M99.94,33.85l-3.53,5.78,6.93,2.86c.44-.71,1.15-2.7,1.87-3.22.78-.42,1.94-.43,2.81-.62,1.01-.17.76-.5-.02-1.19-1.34-1.44-1.98-.52-2.96.48l-5.11-4.09Z"/>
      <path class="cls-5" d="M94.86,44.35l5.89-5.78c1.18,1.58,3.58,4.46,4.79,6.17.34.64-.72,3.38-.81,4.08l-9.87-4.47Z"/>
      <path class="cls-5" d="M96.95,59.26l-2.55-9.01s5.54-3.47,6.59-3.85c1.36.03,3.25.24,4.39.81.1.08.13.16.11.28-.83,1.77-3.2,5.78-4.13,7.51l-4.41,4.26Z"/>
      <path class="cls-5" d="M111.01,56.68c-.19,1.48.02,3.4-1.8,3.89-1.54.37-4.34-1.04-5.82-2.07-.96-.66-1.48-1.54-1.57-2.61.02-1.97-.34-5.54,1.58-6.09,1.02-.19,2.07.14,3.11.37,1.43.36,3.45.85,4.15,1.87.82,1.08.47,2.64.37,4.43l-.02.21Z"/>
      <g>
        <path class="cls-11" d="M107.28,56.67c-.45-.07-1.07-.2-1.67-.32-1.41-.29-3.02-.63-4.29-.63-.19,0-.37,0-.54.02-.11.02-.15.02-.19.02-.75,0-2.11-.63-3.2-1.24l1.68-2.1,8.83,1.95c-.04.17-.08.34-.13.52-.14.6-.3,1.25-.48,1.78Z"/>
        <path class="cls-13" d="M99.45,53.53l7.22,1.6c-.03.13-.07.27-.1.4-.26-.05-.52-.11-.76-.16-1.46-.3-3.12-.65-4.5-.65-.22,0-.43,0-.63.03h-.03s-.07.01-.07.01c-.3,0-.93-.23-1.66-.57l.53-.66M98.67,51.31l-2.78,3.48s3.03,1.97,4.7,1.97c.1,0,.19,0,.28-.02.14-.01.29-.02.45-.02,2.06,0,5.31,1,6.46,1,.06,0,.11,0,.16,0,.53-1.06.83-2.97,1.2-4.09l-10.47-2.32h0Z"/>
      </g>
    </g>
    <g>
      <path class="cls-5" d="M115.82,43.83c-1.2-1.15-.15-4.43-2.51-5.11-1.81-.45-4.21,1.01-4.24,2.66.04,1.74,1.4,3.46,2.49,4.94,2.17,2.38,3.51,5.31,6.35,4.94,2.16-.55,4.11-3.68,2.89-5.35-1.09-1.17-3.77-.95-4.87-1.99l-.1-.09Z"/>
      <g>
        <path class="cls-11" d="M115.89,43.33l-2.55-1.5,2.19-7.33,2.94.57c-.48,1.61-1.15,4.17-.95,5.41-.03.67-.82,2.18-1.44,2.95-.06-.03-.12-.07-.18-.1Z"/>
        <path class="cls-13" d="M116.22,35.65l.98.19c-.44,1.63-.82,3.45-.7,4.63-.06.37-.39,1.05-.73,1.62l-.51-.3-.74-.44,1.7-5.71M114.82,33.34l-2.67,8.94c.91.53,2.32,1.37,3.28,1.93.35.18.53.37.81.37.03,0,.06,0,.09,0,.8-.63,2.2-3.03,2.17-4.19-.31-1.35,1.24-6.09,1.24-6.09l-4.93-.96h0Z"/>
      </g>
      <path class="cls-5" d="M99.82,38.05l.75,6.49,7.63-.85c-.09-.8-.77-2.79-.5-3.57.38-.72,1.35-1.26,1.95-1.83.74-.61.31-.77-.77-.99-2.05-.57-1.99.49-2.17,1.78l-6.9-1.03Z"/>
      <path class="cls-5" d="M102.29,49.2l1.23-7.58c2,.77,5.85,2.06,7.97,2.93.7.38,1.57,3.16,1.94,3.79l-11.13.87Z"/>
      <path class="cls-5" d="M113.6,60.71l-7.9-6.35s2.42-5.49,3.05-6.3c1.16-.61,2.87-1.31,4.19-1.37.13.02.21.08.27.18.44,1.86,1.02,6.33,1.35,8.21l-.96,5.63Z"/>
      <path class="cls-5" d="M123.71,51.98c.79,1.33,2.19,2.84.99,4.1-1.05,1.03-4.3,1.16-6.2.99-1.23-.11-2.23-.6-2.99-1.45-1.25-1.66-3.84-4.48-2.58-5.84.73-.64,1.82-.85,2.84-1.15,1.43-.37,3.44-.9,4.68-.37,1.38.52,2.08,1.99,3.15,3.53l.12.18Z"/>
      <g>
        <path class="cls-11" d="M110.87,56.5l.05-2.49,8.68-2.5c.1.21.2.44.3.66.24.51.49,1.07.68,1.56-.43.15-.98.31-1.44.45-1.59.48-3.39,1.02-4.46,1.77-.29.23-1.28.55-3.56.55,0,0-.17,0-.25,0Z"/>
        <path class="cls-13" d="M119.06,52.71c.06.13.12.27.19.41-.13.04-.26.08-.38.11-1.66.5-3.55,1.07-4.74,1.9l-.07.05h0c-.12.06-.67.26-2.15.31l.02-.72,7.15-2.06M120.19,50.3l-10.25,2.95-.09,4.21s.53.03,1.27.03c1.35,0,3.39-.11,4.14-.73,1.63-1.13,5.75-1.9,6.54-2.49-.23-1.14-1.21-2.88-1.61-3.98h0Z"/>
      </g>
    </g>
    <path class="cls-5" d="M158.7,18.79c1.36-1.01,5.19-.07,6.02-2.08.55-1.54-1.13-3.61-3.07-3.65-2.04.01-4.07,1.15-5.82,2.06-2.82,1.82-6.26,2.93-5.86,5.36.62,1.85,4.26,3.55,6.23,2.53,1.38-.91,1.16-3.2,2.39-4.14l.11-.08Z"/>
    <g>
      <path class="cls-11" d="M193.74,58.26l-2.55-1.5,2.19-7.33,2.94.57c-.48,1.61-1.15,4.17-.95,5.41-.04.67-.83,2.18-1.44,2.95-.06-.03-.12-.07-.18-.1Z"/>
      <path class="cls-13" d="M194.07,50.58l.98.19c-.44,1.63-.82,3.45-.7,4.63-.06.37-.39,1.05-.73,1.62l-.54-.32-.71-.42,1.7-5.71M192.68,48.27l-2.67,8.94c.91.53,2.32,1.37,3.28,1.93.35.18.53.37.81.37.03,0,.06,0,.09,0,.8-.63,2.2-3.03,2.17-4.19-.31-1.35,1.24-6.09,1.24-6.09l-4.92-.96h0Z"/>
    </g>
    <g>
      <path class="cls-11" d="M197.54,55.01l-2.55-1.5,2.19-7.33,2.94.57c-.48,1.61-1.15,4.17-.95,5.41-.03.67-.82,2.18-1.44,2.95-.06-.03-.12-.07-.18-.1Z"/>
      <path class="cls-13" d="M197.87,47.33l.98.19c-.44,1.63-.82,3.45-.7,4.63-.06.37-.39,1.05-.73,1.62l-.5-.29-.75-.44,1.7-5.71M196.47,45.02l-2.67,8.94c.91.53,2.32,1.37,3.28,1.93.35.18.53.37.81.37.03,0,.06,0,.09,0,.8-.63,2.2-3.03,2.17-4.19-.31-1.35,1.24-6.09,1.24-6.09l-4.92-.96h0Z"/>
    </g>
    <g>
      <path class="cls-5" d="M159.74,33.73c1.2,1.15.15,4.43,2.51,5.11,1.81.45,4.21-1.01,4.24-2.66-.04-1.74-1.4-3.46-2.49-4.94-2.17-2.38-3.51-5.31-6.35-4.94-2.16.55-4.11,3.68-2.89,5.35,1.09,1.17,3.77.95,4.87,1.99l.1.09Z"/>
      <g>
        <path class="cls-11" d="M157.1,42.5c.48-1.61,1.14-4.17.95-5.41.04-.67.83-2.18,1.44-2.95.06.03.12.07.18.1l2.55,1.5-2.19,7.33-2.94-.57Z"/>
        <path class="cls-13" d="M159.79,35.48l.5.29.75.44-1.7,5.71-.98-.19c.44-1.63.82-3.45.7-4.63.06-.37.39-1.05.73-1.62M159.32,32.98s-.06,0-.09,0c-.8.63-2.2,3.03-2.17,4.19.31,1.35-1.24,6.09-1.24,6.09l4.93.96,2.67-8.94c-.91-.53-2.32-1.37-3.28-1.93-.35-.18-.53-.37-.81-.37h0Z"/>
      </g>
      <path class="cls-5" d="M175.74,39.52l-.75-6.49-7.63.85c.09.8.77,2.79.5,3.57-.38.72-1.35,1.26-1.95,1.83-.74.61-.31.77.77.99,2.05.57,1.99-.49,2.17-1.78l6.9,1.03Z"/>
      <path class="cls-5" d="M173.27,28.37l-1.23,7.58c-2-.77-5.85-2.06-7.97-2.93-.7-.38-1.57-3.16-1.94-3.79l11.13-.87Z"/>
      <path class="cls-5" d="M161.95,16.86l7.9,6.35s-2.42,5.49-3.05,6.3c-1.16.61-2.87,1.31-4.19,1.37-.13-.02-.21-.08-.27-.18-.44-1.86-1.02-6.33-1.35-8.21l.96-5.63Z"/>
      <path class="cls-5" d="M151.84,25.59c-.79-1.33-2.19-2.84-.99-4.1,1.05-1.03,4.3-1.16,6.2-.99,1.23.11,2.23.6,2.99,1.45,1.25,1.66,3.84,4.48,2.58,5.84-.73.64-1.82.85-2.84,1.15-1.43.37-3.44.9-4.68.37-1.38-.52-2.08-1.99-3.15-3.53l-.12-.18Z"/>
      <g>
        <path class="cls-11" d="M155.65,25.4c-.24-.51-.49-1.07-.68-1.57.42-.15.98-.31,1.44-.45,1.59-.48,3.39-1.02,4.46-1.77.29-.23,1.28-.55,3.56-.55.09,0,.17,0,.25,0l-.05,2.49-8.68,2.5c-.09-.21-.2-.43-.3-.66Z"/>
        <path class="cls-13" d="M163.66,22.08l-.02.72-7.15,2.06c-.06-.13-.12-.27-.19-.41.13-.04.26-.08.38-.11,1.66-.5,3.55-1.07,4.74-1.9l.07-.05h0c.12-.06.67-.26,2.15-.31M164.43,20.07c-1.35,0-3.39.11-4.14.73-1.63,1.13-5.75,1.9-6.54,2.49.23,1.14,1.21,2.88,1.61,3.98l10.25-2.95.09-4.21s-.53-.03-1.27-.03h0Z"/>
      </g>
    </g>
    <path class="cls-5" d="M174.95,43c-1.49-.78-3.62-1.43-3.36-3.05.26-1.35,2.95-2.91,4.67-3.62,1.11-.46,2.27-.49,3.44-.1,2.08.85,6.02,2.09,5.79,3.81-.23.87-1.02,1.54-1.71,2.25-.99.95-2.37,2.31-3.75,2.41-1.49.17-2.99-.76-4.85-1.6l-.22-.1Z"/>
    <g>
      <path class="cls-5" d="M184.46,47.61c1.73.44,2.85,3.7,5.28,3.22,1.82-.43,2.96-2.74,1.97-4.17-1.1-1.46-3.32-2.32-5.16-3.09-3.31-1.06-6.25-2.94-8.44-1.36-1.5,1.44-1.23,4.97.83,5.84,1.64.51,3.79-.88,5.37-.49l.14.04Z"/>
      <g>
        <path class="cls-11" d="M187.61,56.26c-.55-1.5-1.62-4.2-2.56-5.17-.39-.58-.62-2.07-.61-2.98.02,0,3.38.14,3.38.14l2.63,7.18-2.84.83Z"/>
        <path class="cls-13" d="M185.51,49.15l.39.02,1.21.05,2.04,5.55-.92.27c-.62-1.61-1.49-3.57-2.37-4.55-.14-.27-.27-.8-.35-1.34M183.96,47.09c-.15,0-.28.02-.4.11-.29.89-.01,3.57.73,4.54,1.09,1.01,2.69,5.74,2.69,5.74l4.78-1.39-3.23-8.81c-1.1-.05-2.82-.12-3.98-.17-.02,0-.03,0-.05,0-.21,0-.39-.02-.54-.02h0Z"/>
      </g>
      <path class="cls-5" d="M201.64,45.36l-4.63-5.18-5.98,4.14c.57.64,2.37,2.03,2.62,2.82.12.78-.37,1.68-.53,2.43-.25.85.21.8,1.27.49,2.09-.43,1.39-1.31.75-2.49l6.51-2.21Z"/>
      <path class="cls-5" d="M192.67,36.98l3.62,7c-2.18.24-6.25.87-8.58,1.08-.83-.01-3.28-1.99-3.98-2.36l8.94-5.73Z"/>
      <path class="cls-5" d="M175.96,32.26l10.63,1.86s1.32,5.76,1.28,6.73c-.61,1.04-1.64,2.4-2.72,3.05-.12.04-.23.03-.34-.03-1.52-1.39-4.77-4.93-6.2-6.38l-2.64-5.22Z"/>
      <path class="cls-5" d="M172.73,44.21c-1.49-.78-3.62-1.43-3.36-3.05.26-1.35,2.95-2.91,4.67-3.62,1.11-.46,2.27-.49,3.44-.1,2.08.85,6.02,2.09,5.79,3.81-.23.87-1.02,1.54-1.71,2.25-.99.95-2.37,2.31-3.75,2.41-1.49.17-2.99-.76-4.85-1.6l-.22-.1Z"/>
      <g>
        <path class="cls-11" d="M175.87,42.27c-.53-.34-1.11-.71-1.58-1.05.26-.29.58-.63.85-.92,1.07-1.14,2.29-2.42,2.75-3.57.17-.48,1.46-1.39,2.91-2.12l1.56,2.25-5.74,5.91c-.24-.16-.5-.32-.76-.49Z"/>
        <path class="cls-13" d="M180.5,35.9l.58.84-4.6,4.73s-.05-.03-.07-.05c-.19-.12-.39-.25-.6-.39.02-.02.04-.04.06-.06,1.13-1.2,2.41-2.56,2.95-3.88v-.03c.23-.27.89-.72,1.68-1.17M181.15,33.33s-3.78,1.68-4.18,3.01c-.69,1.69-3.72,4.2-4.03,5.05.9.86,2.8,1.91,3.82,2.67l6.91-7.1-2.51-3.63h0Z"/>
      </g>
    </g>
    <g>
      <path class="cls-11" d="M204.34,58.55c-.55-1.5-1.62-4.2-2.56-5.17-.39-.58-.62-2.07-.61-2.98.02,0,3.38.14,3.38.14l2.63,7.18-2.84.83Z"/>
      <path class="cls-13" d="M202.24,51.45l.4.02,1.2.05,2.03,5.55-.92.27c-.62-1.61-1.49-3.57-2.37-4.55-.14-.27-.27-.8-.35-1.34M200.69,49.38c-.15,0-.28.02-.4.11-.29.89-.01,3.57.73,4.54,1.09,1.01,2.69,5.74,2.69,5.74l4.78-1.39-3.23-8.81c-1.1-.05-2.82-.12-3.98-.17-.02,0-.03,0-.05,0-.21,0-.39-.02-.54-.02h0Z"/>
    </g>
    <path class="cls-5" d="M206.94,53.61l-4.63-5.18-5.98,4.14c.57.64,2.37,2.03,2.62,2.82.12.78-.37,1.68-.53,2.43-.25.85.21.8,1.27.49,2.09-.43,1.39-1.31.75-2.49l6.51-2.21Z"/>
    <path class="cls-5" d="M151.41,53.19c1.73.44,2.85,3.7,5.28,3.22,1.82-.43,2.96-2.74,1.97-4.17-1.1-1.46-3.32-2.32-5.16-3.09-3.31-1.06-6.25-2.94-8.44-1.36-1.5,1.44-1.23,4.97.83,5.84,1.64.51,3.79-.88,5.37-.49l.14.04Z"/>
    <g>
      <path class="cls-11" d="M145.37,57.37l.13-2.3c.93.06,2.35.13,3.67.13,1.75,0,2.48-.13,2.86-.25.1-.01.22-.02.34-.02,1,0,2.49.34,3.41.67l-1.26,2.35-9.15-.58Z"/>
      <path class="cls-13" d="M152.37,55.94c.55,0,1.28.12,1.94.28l-.37.69-7.52-.48.02-.31c.83.04,1.8.08,2.72.08,1.74,0,2.56-.13,3.05-.26.04,0,.09,0,.16,0M152.37,53.94c-.21,0-.4.01-.57.04-.52.17-1.53.22-2.64.22-2.13,0-4.61-.2-4.61-.2l-.25,4.31,10.78.68c.46-.86,1.17-2.19,1.66-3.1.16-.36.38-.55.27-.82-.76-.49-3.16-1.14-4.65-1.14h0Z"/>
    </g>
    <g>
      <path class="cls-11" d="M157.87,57.56l.13-2.3c.93.06,2.36.13,3.67.13,1.75,0,2.48-.13,2.86-.25.1-.01.22-.02.34-.02,1,0,2.49.34,3.41.67l-1.26,2.35-9.15-.58Z"/>
      <path class="cls-13" d="M164.87,56.13c.55,0,1.28.12,1.94.28l-.37.69-7.52-.48.02-.31c.83.04,1.8.08,2.72.08,1.74,0,2.56-.13,3.05-.26.04,0,.09,0,.16,0M164.87,54.13c-.21,0-.4.01-.57.04-.52.17-1.53.22-2.64.22-2.13,0-4.61-.2-4.61-.2l-.25,4.31,10.78.68c.46-.86,1.17-2.19,1.66-3.1.16-.36.38-.55.27-.82-.76-.49-3.16-1.14-4.65-1.14h0Z"/>
    </g>
    <path class="cls-5" d="M168.59,50.95l-4.63-5.18-5.98,4.14c.57.64,2.37,2.03,2.62,2.82.12.78-.37,1.68-.53,2.43-.25.85.21.8,1.27.49,2.09-.43,1.39-1.31.75-2.49l6.51-2.21Z"/>
    <path class="cls-5" d="M159.62,42.56l3.62,7c-2.18.24-6.25.87-8.58,1.08-.83-.01-3.28-1.99-3.98-2.36l8.94-5.73Z"/>
    <path class="cls-5" d="M142.92,37.84l10.63,1.86s1.32,5.76,1.28,6.73c-.61,1.04-1.64,2.4-2.72,3.05-.12.04-.23.03-.34-.03-1.52-1.39-4.77-4.93-6.2-6.38l-2.64-5.22Z"/>
    <path class="cls-5" d="M139.68,49.8c-1.49-.78-3.62-1.43-3.36-3.05.26-1.35,2.95-2.91,4.67-3.62,1.11-.46,2.27-.49,3.44-.1,2.08.85,6.02,2.09,5.79,3.81-.23.87-1.02,1.54-1.71,2.25-.99.95-2.37,2.31-3.75,2.41-1.49.17-2.99-.76-4.85-1.6l-.22-.1Z"/>
    <g>
      <path class="cls-11" d="M142.83,47.86c-.53-.34-1.11-.71-1.58-1.05.26-.29.58-.63.85-.92,1.07-1.14,2.29-2.42,2.75-3.57.17-.48,1.46-1.39,2.91-2.12l1.56,2.25-5.74,5.91c-.24-.16-.5-.32-.76-.49Z"/>
      <path class="cls-13" d="M147.45,41.49l.58.84-4.6,4.73s-.05-.03-.07-.05c-.19-.12-.39-.25-.6-.39.02-.02.04-.04.06-.06,1.13-1.2,2.41-2.56,2.95-3.88v-.03c.23-.27.89-.72,1.68-1.17M148.11,38.92s-3.78,1.68-4.18,3.01c-.69,1.69-3.72,4.2-4.03,5.05.9.86,2.8,1.91,3.82,2.67l6.91-7.1-2.51-3.63h0Z"/>
    </g>
    <path class="cls-5" d="M181.25,53.29c-.54,1.47-4.37,2.39-3.84,4.47.48,1.56,3.18,2.56,4.86,1.74,1.73-.92,2.76-2.8,3.68-4.36,1.28-2.81,3.53-5.3,1.69-7.19-1.66-1.3-5.81-1.11-6.86.64-.61,1.39.98,3.25.51,4.59l-.04.12Z"/>
    <g>
      <path class="cls-11" d="M155.14,42.93c-.55-1.5-1.62-4.2-2.56-5.17-.39-.58-.62-2.07-.61-2.98.02,0,3.38.14,3.38.14l2.63,7.18-2.84.83Z"/>
      <path class="cls-13" d="M153.04,35.82l.4.02,1.2.05,2.04,5.55-.92.27c-.62-1.61-1.5-3.57-2.37-4.55-.14-.27-.27-.8-.35-1.34M151.49,33.76c-.15,0-.28.02-.4.11-.29.89-.01,3.57.73,4.54,1.09,1.01,2.69,5.74,2.69,5.74l4.78-1.39-3.23-8.81c-1.1-.05-2.82-.12-3.98-.17-.02,0-.03,0-.05,0-.21,0-.39-.02-.54-.02h0Z"/>
    </g>
    <g>
      <path class="cls-5" d="M168.73,43.95c-1.73-.44-2.85-3.7-5.28-3.22-1.82.43-2.96,2.74-1.97,4.17,1.1,1.46,3.32,2.32,5.16,3.09,3.31,1.06,6.25,2.94,8.44,1.36,1.5-1.44,1.23-4.97-.83-5.84-1.64-.51-3.79.88-5.37.49l-.14-.04Z"/>
      <g>
        <path class="cls-11" d="M165.37,43.3l-2.63-7.18,2.84-.83c.55,1.5,1.62,4.2,2.56,5.17.39.58.62,2.07.61,2.98-.02,0-3.38-.14-3.38-.14Z"/>
        <path class="cls-13" d="M164.97,36.52c.62,1.61,1.49,3.57,2.37,4.55.14.27.27.8.35,1.34l-.39-.02-1.21-.05-2.03-5.55.92-.27M166.21,34.07l-4.78,1.39,3.23,8.81c1.1.05,2.82.12,3.98.17.02,0,.03,0,.05,0,.21,0,.39.02.54.02s.28-.02.4-.11c.29-.89.01-3.57-.73-4.54-1.09-1.01-2.69-5.74-2.69-5.74h0Z"/>
      </g>
      <path class="cls-5" d="M151.56,46.19l4.63,5.18,5.98-4.14c-.57-.64-2.37-2.03-2.62-2.82-.12-.78.37-1.68.53-2.43.25-.85-.21-.8-1.27-.49-2.09.43-1.39,1.31-.75,2.49l-6.51,2.21Z"/>
      <path class="cls-5" d="M160.52,54.58l-3.62-7c2.18-.24,6.25-.87,8.58-1.08.83.01,3.28,1.99,3.98,2.36l-8.94,5.73Z"/>
      <path class="cls-5" d="M177.23,59.3l-10.63-1.86s-1.32-5.76-1.28-6.73c.61-1.04,1.64-2.4,2.72-3.05.12-.04.23-.03.34.03,1.52,1.39,4.77,4.93,6.2,6.38l2.64,5.22Z"/>
      <path class="cls-5" d="M180.46,47.34c1.49.78,3.62,1.43,3.36,3.05-.26,1.35-2.95,2.91-4.67,3.62-1.11.46-2.27.49-3.44.1-2.08-.85-6.02-2.09-5.79-3.81.23-.87,1.02-1.54,1.71-2.25.99-.95,2.37-2.31,3.75-2.41,1.49-.17,2.99.76,4.85,1.6l.22.1Z"/>
      <g>
        <path class="cls-11" d="M170.82,54.7l5.74-5.91c.24.16.5.32.76.49.53.34,1.11.71,1.58,1.05-.26.29-.58.63-.85.92-1.07,1.14-2.29,2.42-2.75,3.57-.17.48-1.46,1.39-2.91,2.12l-1.56-2.25Z"/>
        <path class="cls-13" d="M176.71,50.08s.05.03.08.05c.19.12.39.25.6.38-.02.02-.04.04-.06.06-1.13,1.2-2.41,2.56-2.95,3.88v.03c-.23.27-.89.72-1.67,1.17l-.58-.84,4.6-4.73M176.43,47.49l-6.91,7.1,2.51,3.63s3.78-1.68,4.18-3.01c.69-1.69,3.72-4.2,4.03-5.05-.9-.86-2.8-1.91-3.82-2.67h0Z"/>
      </g>
    </g>
  </g>
  <path class="cls-6" d="M126.69,25.97l.5-.04,1.31-4.69,3.65-6.13c1.06-.66,2.16-.81,2.16-.81,0,0-.04,1.59.16,1.9s.16.24.16.24l.29.13.08-.16.47.78.51.18.17-.16.32.7.28.17.07-.27.47.48s.49.43.39.15-.05-.9-.05-.9l.39.11-1.83-2.33,2.76,2.41s.7.75.62.23l-.08-.52s.64.65,1.23.02-.65-.97-.65-.97l-.29-.43-1.01-.28.88-.23c.22-.79-1.07-.91-1.07-.91h-1.81s-.31-.15-.31-.15l2.05-.29c.52-.63-.31-.92-.31-.92-1.07-.28-1.43-.02-1.43-.02.64-1.07-.55-.93-.55-.93l-1.81,1.5-2.08.76,1.4-2.83,4.19-.05c1.02-.04,1.2-.31,1.2-.31.51-.51-1.49-.34-1.49-.34,0,0,3.56-.77.6-.81,0,0,2.7-1.27-.24-1.21,0,0,1.77-1.94-.5-1.11l.94-.89s.25-.56-.15-.49-.5.08-.5.08c0,0,.55-1.35-1-.88l-.06.3s-.1-.93-.34-.53l-.7,1.18s-.52-1.87-1.18-.36c0,0-1.02-1.73-1.49-.01,0,0-1.54-1.35-.52,1.22,0,0-1.64-2-.43,1.3l1.38,2.76-1.38,2.88-.86-1.86.88-2.29s-.18-1.42-.84-.5c0,0,.2-1.28-.59-.8,0,0-.82-1.41-.92,1.42-.09,2.82-.18-5.34-1.6-1.89,0,0-.65-2.07-1.34-1.11,0,0-1.86-.4-.84,1.09,0,0-1.71-.08.83,1.18,0,0-2.07-.8-.65.21l.22.3.65.22.97.26.83.42.63.73-2.29-1.12s-1.01-.47-.45,0c0,0-1.95-.27.23.74,0,0-.45.28.6.4l1.8.33s-1.21.74.34.43l.42.3.41-.06.39-.06.95,2.03-3.41,5.72s-.46.59-.4.96l-1.36,4.47Z"/>
  <g>
    <path class="cls-2" d="M83.37,53.39l-4.05,3.87-5.11.62-5.58,1.75-4.85.57-4-.08-2.21-.99-1.9,1.91-3.58-.69-1.78-2.06-.59-2.68-3.69-1.16-4.37-2.76s.06.29-1.63-1.34c-1.69-1.63-2.31-4.9-2.31-4.9l.1-5.03,1.89-3.93.18-3.65,4.23-5.35,3.87-2.48,3.87-4.46c4.65-2.94,3.05-2.68,3.05-2.68l3.08-1.08,6.38-3.62,5.6-2.65c3.73-.13,8.09.11,8.09.11l5.35,1.22,3.61,1.8.53,2.39-2.02.63-1.16.52-2,1.86-4.11,7.75.25,1.11-1.54,1.37-.76,1.72,1.67,7.49,1.28,2.55-.67,2.73,1.96,2.4,1.09,2.34.6,2.7,1.25,2.2Z"/>
    <polygon class="cls-4" points="39.71 36.48 40.56 40.3 42.8 43.58 45.71 46.31 50.14 46.86 55.39 45.69 60.13 45.38 65.08 47.35 70.97 47.68 71.93 43.91 74.32 43.38 78.48 43.75 79.15 41.02 77.87 38.47 76.21 30.97 76.96 29.26 78.51 27.88 78.26 26.78 82.37 19.03 84.37 17.17 87.56 16.02 87.03 13.63 83.41 11.82 78.06 10.61 69.97 10.5 64.37 13.15 57.99 16.77 54.91 17.86 51.86 20.54 47.99 25 44.12 27.48 39.89 32.83 39.71 36.48"/>
    <polygon class="cls-9" points="52.74 44.32 57.9 43.17 65.07 36.57 72.01 34.13 73.8 30.3 78.87 23.98 82.08 15.88 69.69 12.09 59.65 15.31 51.73 23.27 49.12 31.69 40.53 33.6 43.05 41.47 52.74 44.32"/>
    <polygon class="cls-8" points="57.5 35.77 64.53 32.69 69.08 32.44 71.64 26.81 75.18 28.92 77.24 28.1 81.29 21.2 81.79 17.91 82.6 16.1 84.09 14.86 80.37 12.9 78.37 11.58 74.04 11.91 70.61 16.31 68.36 18.81 63.62 20.97 64.96 23.38 61.32 24.83 57.52 28.67 55.15 27.47 52.92 30.06 54.69 32.6 52.64 36.03 54.71 37.66 57.5 35.77"/>
    <path class="cls-8" d="M51.86,20.54l.89,4.01,4.26-3.58,1.96-2.01,3.02-.1,2.46-3.18,3-2.3,2.77-1.07c-.05-4.72-10.04,3.23-10.04,3.23l-8.31,5.01Z"/>
    <path class="cls-1" d="M85.49,55.47l2.3.13,3.89,1.33,1.48,1.73,2.9,1.55.36,1.6,3.12,1.24,3.93,1.06,5.42.73,3.52-.78,3.2-1.61,1.87-1.19,2.11-2.02,1.95-.18,2.33-1.68.51-1.53,1.08-.89,1.65.41,1.35-.95,3.41-2.56,1.27-1.31s1.06.28,1.54-2.66c.48-2.94-.39-4.94-.39-4.94,0,0,.86-2.51.05-4.27s1.25,1.78,1.38-4.04c.13-5.83.37-4.72.37-4.72l-2.12-1.85,1.13-2.57-1.14-1.29-.25-1.11-3.18-4.71-.76-2.8-.82-1.11-2.33-.26-3.14-.07-2.74-.81-2.17.48-1.3-1.39-2.82-.53-1.87-1.39-2.44.54-1.52-1.72-2.36-.38-2.03-.19-1.19-.89-2.84.63-2.84.63-2.14,1.25-2.65,1.49-2.22.88-.75,3-2.9.39-2.33,1.03-2,1.86-1.08,2.17-1.89,3-1.13,2.57.25,1.11-1.54,1.37-.76,1.72.52,2.33.6,2.7.55,2.46,1.28,2.55-.67,2.73,1.96,2.4,1.09,2.34.6,2.7,1.47,1.48,1.9,2.8Z"/>
    <path class="cls-3" d="M89.6,15.75l-3.48,6.01-.51,7.86-1.19,5.9,4.69,5.82,2.11,3.23,5.71.05,3.3,5.25,4.87,1.82,8.64,3.09s5.21-.98,5.64-1.25,7.65-5.75,7.65-5.75l.36-3.16.16-6.28,4.86-2.14,2.4-3.61,1.3-2.67-2.12-1.85,1.13-2.57-1.14-1.29-.25-1.11-2.09-3.1-1.42-2.84-1.24-2.67-5.48-.33-2.74-.81-2.17.48-1.3-1.39-2.82-.53-1.87-1.39-2.44.54-1.52-1.72-4.39-.57-1.19-.89-5.69,1.27-7.01,3.62-.75,3Z"/>
    <path class="cls-8" d="M133.99,28.05l-4.91,1.09-3.05-2.93-4.12,1.67.11,5.66-3.9,1.25-2.33-1.56-1.87-.91-2.54,5.39s-1.19.36-1.81-.07-1.66-4.18-1.76-4.63-4.04-2.7-4.46-2.7-3.72-1.25-3.72-1.25l-3.19-1.18-6.56,1.46-2.54,4.07-2.1,3.1,5.99,8.05,5.71.05,3.3,5.25,13.51,4.91,5.64-1.25,7.65-5.75.52-9.44,4.86-2.14,3.7-6.28-2.12-1.85Z"/>
    <path class="cls-8" d="M88.67,26.76l5.19-.59,2.7-3.35-2.17-1.79,6.8-.85,1.96-1.95-2.11-1.99,3.2-.14.43-3.69-4.99.54s-3.6,1.65-4.08,1.85-1.94,2.99-1.94,2.99l-2.13-1.61-2.63.76-2.9,6.56,1.01,2.4,1.65.86Z"/>
    <g>
      <polygon class="cls-10" points="108.51 55.47 104.87 52.7 98.22 50.39 95.77 47.74 91.23 45.55 87.66 43.54 84.53 39.93 83.09 33.49 83.21 25.37 85.6 22.09 85.11 29.58 83.89 35.63 90.97 45.05 96.65 45.1 99.89 50.26 113.7 55.29 119.59 53.98 127.51 48.02 128.02 38.66 131.58 37.09 131.33 37.85 128.67 40.39 130.08 46.7 126.92 49.97 124.17 51.98 119.77 54.69 113.11 55.59 108.51 55.47"/>
      <path class="cls-9" d="M84.99,23.78l-.37,5.7-.9,4.49-.12-.53.11-7.9,1.28-1.75M84.43,37.17l5.17,6.88-1.62-.91-2.99-3.45-.56-2.53M130.18,38.25l-1.65,1.58-.07.07.05-.91,1.68-.74M128.38,41.36l.44,2,.71,3.19-1.53,1.58.02-.31.36-6.46M92.41,45.56l3.96.04,2.91,4.63-.78-.27-2.29-2.49-.13-.14-.17-.08-3.49-1.68M127.47,48.68l-.85.88-2.71,1.99-1.43.88,4.99-3.75M106.21,53.09l5.38,1.96-2.9-.07-2.48-1.88M89.6,15.75l-6.88,9.45-.12,8.34,1.47,6.63,3.27,3.77,3.67,2.07,4.46,2.15,2.46,2.67,6.69,2.33,3.71,2.82,4.8.12,6.81-.92,4.52-2.79,2.81-2.07,3.35-3.46-.83-3.72-.57-2.59,2.54-2.43.64-1.94-4.86,2.14-.52,9.44-7.65,5.75-5.64,1.25-13.51-4.91-3.3-5.25-5.71-.05-6.8-9.05,1.19-5.9.51-7.86,3.48-6.01h0Z"/>
    </g>
    <polygon class="cls-8" points="55.96 40.11 54.36 43.74 50.14 46.86 45.71 46.31 41.85 42.2 40.91 37.95 44.47 34.87 49.51 34.54 46.11 37.75 47.63 38.72 52.75 38.75 55.96 40.11"/>
  </g>
</svg>